<svg width="32" height="30" viewBox="0 0 32 30" fill="none" xmlns="http://www.w3.org/2000/svg">
<path d="M25.6916 25.056C27.3412 24.6432 28.5716 24.232 28.5716 24.232C28.9503 24.0386 29.2672 23.7427 29.4861 23.3781C29.7051 23.0135 29.8173 22.5948 29.81 22.1696V19.6944C29.1748 21.9432 27.7006 23.8624 25.6916 25.056ZM27.3412 17.6336L24.4612 16.3952V18.04C24.3786 18.7645 24.1541 19.4656 23.8005 20.1034C23.4469 20.7411 22.9711 21.3029 22.4004 21.7568C22.8132 21.7568 22.8132 22.1696 22.8132 22.5824L22.4004 23.4064L24.05 24.232C27.3492 22.9936 28.1748 19.2832 28.586 17.2208L27.3412 17.6336ZM16.2068 22.5824C15.7509 21.829 15.4689 20.9834 15.3812 20.1072V26.7056C15.4244 27.0186 15.5695 27.3087 15.794 27.5312H17.0308C18.7415 27.4196 20.418 27.0001 21.9796 26.2928C20.8027 26.1402 19.6744 25.7282 18.676 25.0866C17.6777 24.4449 16.8343 23.5896 16.2068 22.5824ZM19.506 14.3344C19.4849 14.7837 19.6321 15.2246 19.9188 15.5712C20.33 15.5712 20.7428 15.5712 21.1556 14.7456C21.5684 13.92 21.1556 13.096 20.33 13.096C20.098 13.2145 19.9004 13.3907 19.7561 13.6075C19.6118 13.8244 19.5257 14.0747 19.506 14.3344ZM15.794 11.8592V16.808C16.0245 15.1227 16.6738 13.5221 17.6826 12.1525C18.6913 10.7829 20.0273 9.68805 21.5684 8.96799L17.0308 10.2048C16.2068 10.2096 15.794 11.0352 15.794 11.8592ZM14.1444 11.8592C14.0883 11.103 14.3082 10.352 14.7633 9.74543C15.2184 9.13885 15.8778 8.71771 16.6196 8.55999L26.9284 6.08639L18.2692 2.78719H16.6196L5.07237 5.26079C5.07237 5.26079 3.83397 5.67359 3.83397 6.49759V7.31999L3.00997 8.97279V11.4464L2.18437 11.8592V12.6848L3.00997 13.096V15.16L3.83397 16.3968V21.7584C3.83156 21.8675 3.85127 21.9759 3.89191 22.0772C3.93255 22.1784 3.99328 22.2704 4.07043 22.3475C4.14757 22.4247 4.23955 22.4854 4.3408 22.526C4.44205 22.5667 4.55049 22.5864 4.65957 22.584C5.48357 22.9952 10.8452 25.464 14.1444 26.7072V11.8592ZM24.4548 11.8592L27.3348 13.096L28.1604 12.6848C27.6583 12.055 27.2419 11.3615 26.922 10.6224C26.17 10.1648 25.3245 9.88258 24.4484 9.79679L24.4548 11.8592ZM28.9908 7.31999L23.218 8.55679C24.0158 8.34193 24.8564 8.34325 25.6535 8.5606C26.4507 8.77795 27.1756 9.20351 27.754 9.79359C28.2486 10.0985 28.6589 10.5227 28.9471 11.0272C29.2353 11.5318 29.3922 12.1006 29.4036 12.6816V7.31999C29.4036 6.91039 28.9908 6.91039 28.9908 7.31999ZM30.8692 5.23999C30.5656 4.93335 30.1742 4.7287 29.7492 4.65439L19.162 0.585594C18.7186 0.34378 18.2231 0.213224 17.7181 0.205142C17.2131 0.19706 16.7137 0.311693 16.2628 0.539194C14.6452 0.943994 4.83877 2.98879 4.67077 3.02719C3.86656 3.19228 3.14224 3.62553 2.6164 4.25601C2.09057 4.88648 1.79439 5.67682 1.77637 6.49759V6.76639L1.01637 8.27999L0.960365 10.2416L0.134766 10.6544V13.7632L0.545966 14.176V15.7568L1.37157 16.9936V21.7568C1.38642 22.4115 1.58959 23.0481 1.95677 23.5903C2.32394 24.1326 2.83957 24.5575 3.44197 24.8144C3.96997 24.9904 6.42117 26.0352 8.79077 27.0448C14.6484 29.5408 15.3092 29.7952 15.5956 29.7952H16.4212L17.346 29.7856C18.9332 29.5216 22.8916 28.2992 25.7844 27.4064C27.1796 26.9744 28.6228 26.5296 28.7924 26.4976L29.0676 26.4304C29.9096 26.0839 30.6281 25.4924 31.1299 24.7327C31.6317 23.973 31.8937 23.08 31.882 22.1696V7.73599C31.9308 7.2688 31.8639 6.79676 31.6873 6.36149C31.5107 5.92622 31.2297 5.54108 30.8692 5.23999ZM30.6436 22.1712C30.6506 22.8365 30.459 23.4887 30.0933 24.0445C29.7276 24.6003 29.2045 25.0343 28.5908 25.2912C28.2708 25.3536 27.5556 25.5696 25.4132 26.232C22.5556 27.1136 18.6404 28.3232 17.2372 28.5648L15.6868 28.576C15.2724 28.4752 11.8004 26.9952 9.26597 25.9152C6.65477 24.7952 4.39877 23.8352 3.90277 23.6752C3.52771 23.5084 3.20656 23.2404 2.97537 22.9013C2.74418 22.5621 2.6121 22.1652 2.59397 21.7552V16.6224L1.76837 15.3856V13.6672L1.35717 13.2544V11.4144L2.18117 11V8.70559L2.94117 7.18559L3.00677 6.49759C3.00677 6.09759 3.00677 4.87839 4.99077 4.21279C5.39557 4.12959 14.9204 2.14399 16.6868 1.68639C16.9927 1.52566 17.3338 1.44369 17.6794 1.44788C18.025 1.45207 18.364 1.54229 18.666 1.71039L29.386 5.83519L29.6068 5.87679C29.755 5.91864 29.8896 5.99864 29.9972 6.10879C30.2416 6.29632 30.4303 6.54688 30.543 6.83356C30.6558 7.12024 30.6883 7.43222 30.6372 7.73599L30.6436 22.1712Z" fill="#1877F2"/>
</svg>
